PathFileType	4	(X/Y/Z)	/Users/niels/Desktop/University/Third Semester/Perception and Action/Exam/Gymnastics Motion Tracking/Code for Gym Tracking/Analyzed Data/Start Salto/stsalto_bad_id2_1_Sports2D/stsalto_bad_id2_1_Sports2D_px_person00.trc
DataRate	CameraRate	NumFrames	NumMarkers	Units	OrigDataRate	OrigDataStartFrame	OrigNumFrames
29.84771573604061	29.84771573604061	8	22	m	29.84771573604061	147	197
Frame#	Time	Hip			RHip			RKnee			RAnkle			RBigToe			RSmallToe			RHeel			LHip			LKnee			LAnkle			LBigToe			LSmallToe			LHeel			Neck			Head			Nose			RShoulder			RElbow			RWrist			LShoulder			LElbow			LWrist		
		X1	Y1	Z1	X2	Y2	Z2	X3	Y3	Z3	X4	Y4	Z4	X5	Y5	Z5	X6	Y6	Z6	X7	Y7	Z7	X8	Y8	Z8	X9	Y9	Z9	X10	Y10	Z10	X11	Y11	Z11	X12	Y12	Z12	X13	Y13	Z13	X14	Y14	Z14	X15	Y15	Z15	X16	Y16	Z16	X17	Y17	Z17	X18	Y18	Z18	X19	Y19	Z19	X20	Y20	Z20	X21	Y21	Z21	X22	Y22	Z22
147	4.925	1.5815768808302675	-0.6689710872017899	0.0	1.597422763869929	-0.6703238614199465	0.0	1.724811971432275	-0.6552219100011867	0.0	1.742051654375412	-0.7608286666713404	0.0	1.7895643712412663	-0.7656727731393782	0.0	1.7828854474140603	-0.7726425960068675	0.0	1.7354827134314297	-0.7772761037003446	0.0	1.5702877431824505	-0.6719781102097292	0.0	1.6251900905615888	-0.7628793070867306	0.0	1.5284861153601772	-0.7414871383106906	0.0	1.5028698185346663	-0.7702973297780834	0.0	1.49882535946483	-0.7675120390324639	0.0	1.509873688666329	-0.7329957145246816	0.0	1.7043504790891466	-0.6054753629950455	0.0	1.748329568570722	-0.5565094462034172	0.0	1.7501081526735185	-0.5937393903997251	0.0	1.7262685323494957	-0.6128261489617354	0.0	1.8086334727669207	-0.6545105950074733	0.0	1.879680856961489	-0.6797744532351631	0.0	1.6869752840818497	-0.5999259498008985	0.0	1.6785021378628027	-0.6507359336432322	0.0	1.6892110727748686	-0.6744427594366217	0.0
148	4.958503401360543	1.5849959308440313	-0.6645377590699126	0.0	1.6014458708672383	-0.6658150008365392	0.0	1.7292189096912027	-0.6541662341145904	0.0	1.7428756538442378	-0.7611495581799098	0.0	1.7908911739926545	-0.7660643289479387	0.0	1.7840653010248317	-0.7733014442271277	0.0	1.7359118999132512	-0.7776009735701801	0.0	1.5732641745238172	-0.6682557894513651	0.0	1.6244612801524103	-0.7619591800639556	0.0	1.5275596330012136	-0.7407427887924489	0.0	1.5032708722794863	-0.7698777961137477	0.0	1.498456982009565	-0.767929393963243	0.0	1.5086599118270947	-0.7326617289403494	0.0	1.7098914242280745	-0.6040612483593859	0.0	1.7564507985741102	-0.5582810781665853	0.0	1.7559093182374328	-0.5953524169863287	0.0	1.7299625012881596	-0.6113240647179143	0.0	1.8110344160356142	-0.6546775545580392	0.0	1.8809754790558686	-0.6822253498254185	0.0	1.6932706279466687	-0.5968997071113468	0.0	1.6981316649433171	-0.6490667038224902	0.0	1.6894818005675345	-0.6755060075109549	0.0
149	4.992006802721088	1.5882791267464587	-0.6599892109252518	0.0	1.6053249377681553	-0.6611272132538698	0.0	1.7335044677799785	-0.6530868595744201	0.0	1.7436966830852494	-0.761517885846443	0.0	1.7919684369385176	-0.7665077206821849	0.0	1.785312809591372	-0.773881695022026	0.0	1.7365313011165544	-0.777636768942245	0.0	1.576441270961292	-0.6641904407717468	0.0	1.6237678206250252	-0.7605399278857632	0.0	1.5264130853712232	-0.7400516234909271	0.0	1.5042518330279062	-0.7698206998869506	0.0	1.4985510564127595	-0.768337805908232	0.0	1.5072847890194951	-0.7328178398265219	0.0	1.7151684894720447	-0.60253568633778	0.0	1.7642463601727763	-0.5593963565625726	0.0	1.7618132926160743	-0.59636679538643	0.0	1.7332780005416062	-0.6092982230687161	0.0	1.8134907099628974	-0.6547436360375656	0.0	1.882112769404917	-0.684593950666288	0.0	1.6993203673038857	-0.5940843788848842	0.0	1.7213532195199714	-0.6483969231151663	0.0	1.7029415060217241	-0.6768890694182869	0.0
150	5.025510204081632	1.5913822319721336	-0.6555163337722967	0.0	1.6089680823907695	-0.6566865131357441	0.0	1.7374121855243347	-0.6519037795284103	0.0	1.7444488113395396	-0.7618923559721589	0.0	1.792576076064108	-0.7669272858284328	0.0	1.78632517662395	-0.7743194884458872	0.0	1.7372048484674494	-0.7774527328549086	0.0	1.579713358443814	-0.659968998484651	0.0	1.6230714117121874	-0.7587913360744414	0.0	1.5250757600111964	-0.7394951600633195	0.0	1.50556858710456	-0.7702900418516779	0.0	1.4990893178325473	-0.7687805667173117	0.0	1.5057383250277376	-0.7332337516346128	0.0	1.7200758909591307	-0.6009950557794214	0.0	1.7712840939387515	-0.5597357477847219	0.0	1.7675313180458718	-0.5966685699656857	0.0	1.7363281429101478	-0.6069972569506595	0.0	1.8161797691232524	-0.6547992253520252	0.0	1.8833598770702178	-0.6867381220660024	0.0	1.704940784584395	-0.5917510459875679	0.0	1.7428428642455427	-0.648723782257863	0.0	1.7302507255011732	-0.6785779990863499	0.0
151	5.059013605442177	1.5942695201979442	-0.6512529792796766	0.0	1.6123392295393064	-0.6526983181173995	0.0	1.7408712331534293	-0.6506867599672234	0.0	1.7451309874753593	-0.7622997047785973	0.0	1.7927251251632688	-0.767240655014511	0.0	1.7869730118476206	-0.7746083369504843	0.0	1.7378674711481017	-0.7772134061237633	0.0	1.5829625027873826	-0.6557853457354469	0.0	1.6223522834249071	-0.7568466021351838	0.0	1.523602739884018	-0.7390933568690146	0.0	1.5069660696412361	-0.7712723505954572	0.0	1.4999312710653117	-0.7692687826576738	0.0	1.5040578896153354	-0.7337088890807621	0.0	1.7245410073464627	-0.5994491681658931	0.0	1.7774055123915586	-0.5594318656603217	0.0	1.772799957981652	-0.5963743004931136	0.0	1.7392249517568612	-0.6045705081382637	0.0	1.8191648314880655	-0.6548027282537927	0.0	1.884893008076316	-0.6886135841347057	0.0	1.7100025775129466	-0.5899423794611964	0.0	1.7587835687457605	-0.6498195181586723	0.0	1.7647016758070462	-0.6804692293336634	0.0
152	5.092517006802721	1.5969265058159061	-0.6472297385210763	0.0	1.6154620130675093	-0.6491267291126658	0.0	1.7439470288928298	-0.64956028788663	0.0	1.7457494314311668	-0.7627647260225018	0.0	1.7925605498608395	-0.7673836002071185	0.0	1.7872805337574775	-0.7747675381578732	0.0	1.7384977292937667	-0.7770314920727801	0.0	1.5861089138994862	-0.6517841088506539	0.0	1.6215935275763798	-0.7547763989558205	0.0	1.5220581458590292	-0.7388086775908532	0.0	1.5082350284948625	-0.7725904842335128	0.0	1.5008870205598024	-0.7697780517007026	0.0	1.5023503640519609	-0.7341309589480024	0.0	1.7285503441003478	-0.5978387900942429	0.0	1.7826938926467697	-0.5587878453295965	0.0	1.7774836571581862	-0.5957379081472697	0.0	1.742113322978944	-0.6021070441748209	0.0	1.8224095513064889	-0.6546713032288943	0.0	1.8867996741862243	-0.6902358089120377	0.0	1.7144282549537582	-0.5885136396562993	0.0	1.7684003932801364	-0.6513036520131527	0.0	1.7957325902858177	-0.6823400612073623	0.0
153	5.1260204081632645	1.5994131991163936	-0.6433878006009978	0.0	1.6184247815108788	-0.6457913984637815	0.0	1.7467538325218974	-0.6486011166586582	0.0	1.7462610943596524	-0.7632458205234987	0.0	1.7922020894837793	-0.7672891427587938	0.0	1.7873128281771382	-0.7747844282866976	0.0	1.739029324841815	-0.7769064333047504	0.0	1.589138838099327	-0.6480155941295478	0.0	1.6208161193775443	-0.7526476842433308	0.0	1.5205244633641932	-0.7385881035799138	0.0	1.5092178299244072	-0.7740267941698149	0.0	1.5017817230347006	-0.7703014994947813	0.0	1.5007394162741208	-0.734457785177711	0.0	1.7321914267789051	-0.596101107750849	0.0	1.7874084490374436	-0.5580986568559758	0.0	1.781641688962839	-0.5950024192394576	0.0	1.7451931802938698	-0.5997014823619561	0.0	1.825803949235288	-0.6543580799972468	0.0	1.8890449279972223	-0.6915702683411552	0.0	1.7182739614604723	-0.5872496574474932	0.0	1.7729966945985478	-0.6527316514474345	0.0	1.8164796068827525	-0.6839165409861936	0.0
154	5.159523809523809	1.6018666127107954	-0.6396075919816996	0.0	1.6213727030703977	-0.6424709902174189	0.0	1.7494340012289924	-0.6478107963703442	0.0	1.7466058476818471	-0.7636392225154139	0.0	1.7916911023422053	-0.7668976038749703	0.0	1.7871152701911979	-0.7745818320541722	0.0	1.739364405965923	-0.7767512774890387	0.0	1.5920976244395193	-0.6444156708280686	0.0	1.6200986688162073	-0.7505337700042056	0.0	1.5190987873042163	-0.738407704073452	0.0	1.5097942330242446	-0.7754448160266434	0.0	1.5025151665480814	-0.7708618968763514	0.0	1.4992945984841723	-0.7346715177260679	0.0	1.7356829200551538	-0.5942150290130368	0.0	1.7918883892679034	-0.5575251452377921	0.0	1.7855379721001234	-0.5942820709630252	0.0	1.7486880905152824	-0.5974390760765216	0.0	1.8292697255908539	-0.6538579505420642	0.0	1.891491669706649	-0.692501689190862	0.0	1.7217766524889309	-0.5859621245200556	0.0	1.774624180649577	-0.6537093165464134	0.0	1.826761159615203	-0.6850162584482915	0.0
